<mxfile host="app.diagrams.net" modified="2023-04-10T14:21:18.965Z" agent="5.0 (Macintosh; Intel Mac OS X 10_15_7) AppleWebKit/537.36 (KHTML, like Gecko) Chrome/111.0.0.0 Safari/537.36" etag="in20slk8hzkhJ02RyUqs" version="21.0.4" type="github">
  <diagram id="c2v3JGP_0GsVAYZGxZWf" name="第 1 页">
    <mxGraphModel dx="1140" dy="734" grid="1" gridSize="10" guides="1" tooltips="1" connect="1" arrows="1" fold="1" page="1" pageScale="1" pageWidth="1169" pageHeight="827" math="0" shadow="0">
      <root>
        <mxCell id="0" />
        <mxCell id="1" parent="0" />
        <mxCell id="LcY0coaoYrKrao49Wern-14" style="edgeStyle=orthogonalEdgeStyle;rounded=0;orthogonalLoop=1;jettySize=auto;html=1;exitX=1;exitY=0.5;exitDx=0;exitDy=0;entryX=0;entryY=0.5;entryDx=0;entryDy=0;" edge="1" parent="1" source="LcY0coaoYrKrao49Wern-1" target="LcY0coaoYrKrao49Wern-9">
          <mxGeometry relative="1" as="geometry" />
        </mxCell>
        <mxCell id="LcY0coaoYrKrao49Wern-1" value="&lt;font face=&quot;Times New Roman&quot; style=&quot;font-size: 34px;&quot;&gt;a&lt;/font&gt;" style="ellipse;whiteSpace=wrap;html=1;aspect=fixed;fillColor=#fff2cc;strokeColor=#d6b656;" vertex="1" parent="1">
          <mxGeometry x="80" y="250" width="80" height="80" as="geometry" />
        </mxCell>
        <mxCell id="LcY0coaoYrKrao49Wern-2" value="&lt;font face=&quot;Times New Roman&quot; style=&quot;font-size: 30px;&quot;&gt;u&lt;/font&gt;" style="ellipse;whiteSpace=wrap;html=1;aspect=fixed;fillColor=#fff2cc;strokeColor=#d6b656;" vertex="1" parent="1">
          <mxGeometry x="1010" y="250" width="80" height="80" as="geometry" />
        </mxCell>
        <mxCell id="LcY0coaoYrKrao49Wern-16" style="edgeStyle=orthogonalEdgeStyle;rounded=0;orthogonalLoop=1;jettySize=auto;html=1;exitX=1;exitY=0.5;exitDx=0;exitDy=0;entryX=0;entryY=0.5;entryDx=0;entryDy=0;" edge="1" parent="1" source="LcY0coaoYrKrao49Wern-3" target="LcY0coaoYrKrao49Wern-4">
          <mxGeometry relative="1" as="geometry" />
        </mxCell>
        <mxCell id="LcY0coaoYrKrao49Wern-3" value="&lt;font face=&quot;Times New Roman&quot; style=&quot;font-size: 30px;&quot;&gt;Block 1&lt;/font&gt;" style="rounded=0;whiteSpace=wrap;html=1;fillColor=#dae8fc;strokeColor=#6c8ebf;" vertex="1" parent="1">
          <mxGeometry x="330" y="260" width="120" height="60" as="geometry" />
        </mxCell>
        <mxCell id="LcY0coaoYrKrao49Wern-29" style="edgeStyle=orthogonalEdgeStyle;rounded=0;orthogonalLoop=1;jettySize=auto;html=1;" edge="1" parent="1" source="LcY0coaoYrKrao49Wern-4" target="LcY0coaoYrKrao49Wern-22">
          <mxGeometry relative="1" as="geometry" />
        </mxCell>
        <mxCell id="LcY0coaoYrKrao49Wern-4" value="&lt;font style=&quot;font-size: 30px;&quot; face=&quot;Times New Roman&quot;&gt;Block 2&lt;/font&gt;" style="rounded=0;whiteSpace=wrap;html=1;fillColor=#dae8fc;strokeColor=#6c8ebf;" vertex="1" parent="1">
          <mxGeometry x="530" y="260" width="120" height="60" as="geometry" />
        </mxCell>
        <mxCell id="LcY0coaoYrKrao49Wern-18" style="edgeStyle=orthogonalEdgeStyle;rounded=0;orthogonalLoop=1;jettySize=auto;html=1;exitX=1;exitY=0.5;exitDx=0;exitDy=0;entryX=0;entryY=0.5;entryDx=0;entryDy=0;" edge="1" parent="1" source="LcY0coaoYrKrao49Wern-5" target="LcY0coaoYrKrao49Wern-12">
          <mxGeometry relative="1" as="geometry" />
        </mxCell>
        <mxCell id="LcY0coaoYrKrao49Wern-5" value="&lt;font style=&quot;font-size: 30px;&quot; face=&quot;Times New Roman&quot;&gt;Block L&lt;/font&gt;" style="rounded=0;whiteSpace=wrap;html=1;fillColor=#dae8fc;strokeColor=#6c8ebf;" vertex="1" parent="1">
          <mxGeometry x="760" y="260" width="120" height="60" as="geometry" />
        </mxCell>
        <mxCell id="LcY0coaoYrKrao49Wern-15" style="edgeStyle=orthogonalEdgeStyle;rounded=0;orthogonalLoop=1;jettySize=auto;html=1;exitX=1;exitY=0.5;exitDx=0;exitDy=0;entryX=0;entryY=0.5;entryDx=0;entryDy=0;" edge="1" parent="1" source="LcY0coaoYrKrao49Wern-9" target="LcY0coaoYrKrao49Wern-3">
          <mxGeometry relative="1" as="geometry" />
        </mxCell>
        <mxCell id="LcY0coaoYrKrao49Wern-9" value="&lt;font face=&quot;Times New Roman&quot; style=&quot;font-size: 34px;&quot;&gt;P&lt;/font&gt;" style="ellipse;whiteSpace=wrap;html=1;aspect=fixed;fillColor=#f8cecc;strokeColor=#b85450;" vertex="1" parent="1">
          <mxGeometry x="200" y="250" width="80" height="80" as="geometry" />
        </mxCell>
        <mxCell id="LcY0coaoYrKrao49Wern-19" style="edgeStyle=orthogonalEdgeStyle;rounded=0;orthogonalLoop=1;jettySize=auto;html=1;exitX=1;exitY=0.5;exitDx=0;exitDy=0;entryX=0;entryY=0.5;entryDx=0;entryDy=0;" edge="1" parent="1" source="LcY0coaoYrKrao49Wern-12" target="LcY0coaoYrKrao49Wern-2">
          <mxGeometry relative="1" as="geometry" />
        </mxCell>
        <mxCell id="LcY0coaoYrKrao49Wern-12" value="&lt;font face=&quot;Times New Roman&quot; style=&quot;font-size: 30px;&quot;&gt;Q&lt;/font&gt;" style="ellipse;whiteSpace=wrap;html=1;aspect=fixed;fillColor=#f8cecc;strokeColor=#b85450;" vertex="1" parent="1">
          <mxGeometry x="910" y="250" width="80" height="80" as="geometry" />
        </mxCell>
        <mxCell id="LcY0coaoYrKrao49Wern-22" value="" style="shape=waypoint;sketch=0;size=6;pointerEvents=1;points=[];fillColor=none;resizable=0;rotatable=0;perimeter=centerPerimeter;snapToPoint=1;" vertex="1" parent="1">
          <mxGeometry x="680" y="280" width="20" height="20" as="geometry" />
        </mxCell>
        <mxCell id="LcY0coaoYrKrao49Wern-24" value="" style="shape=waypoint;sketch=0;size=6;pointerEvents=1;points=[];fillColor=none;resizable=0;rotatable=0;perimeter=centerPerimeter;snapToPoint=1;" vertex="1" parent="1">
          <mxGeometry x="691" y="280" width="20" height="20" as="geometry" />
        </mxCell>
        <mxCell id="LcY0coaoYrKrao49Wern-26" value="" style="edgeStyle=orthogonalEdgeStyle;rounded=0;orthogonalLoop=1;jettySize=auto;html=1;" edge="1" parent="1" source="LcY0coaoYrKrao49Wern-25" target="LcY0coaoYrKrao49Wern-5">
          <mxGeometry relative="1" as="geometry" />
        </mxCell>
        <mxCell id="LcY0coaoYrKrao49Wern-25" value="" style="shape=waypoint;sketch=0;size=6;pointerEvents=1;points=[];fillColor=none;resizable=0;rotatable=0;perimeter=centerPerimeter;snapToPoint=1;" vertex="1" parent="1">
          <mxGeometry x="702" y="280" width="20" height="20" as="geometry" />
        </mxCell>
      </root>
    </mxGraphModel>
  </diagram>
</mxfile>
